<svg xmlns="http://www.w3.org/2000/svg" xmlns:xlink="http://www.w3.org/1999/xlink" id="Layer_1" x="0px" y="0px" viewBox="0 0 1124 520" style="enable-background:new 0 0 1124 520;" xml:space="preserve"><style type="text/css">	.st0{fill:#5C5C5C;}	.st1{fill:#3D3D3D;}	.st2{fill:#939393;}	.st3{fill:#6D6D6D;}</style><path class="st0" d="M174.64,0h16.72c33.47,1.89,65.85,16.4,89.74,39.88c-9.49,8.43-19.29,16.5-28.75,24.97 c-12.37-11.26-27.34-19.74-43.58-23.9c-23.83-6.23-49.93-3.41-71.77,8.03c-22.87,11.67-40.9,32.44-49.27,56.71 c-6.91,19.9-7.43,41.98-1.37,62.15c6.97,23.5,22.81,44.22,43.7,57.05c16.33,10.22,35.67,15.59,54.94,15.14 c20.02-0.08,40.13-7.43,54.77-21.22c14.63-13.38,23.68-31.9,28.15-51.01c-29.05-0.1-58.1-0.01-87.15-0.05 c-0.08-12.42-0.01-24.84-0.04-37.25c43.18-0.02,86.36-0.03,129.55,0c-0.16,9.86,0.4,19.74-0.62,29.57 c-2.44,26.32-11.96,52.26-28.7,72.87c-15.64,19.49-37.64,33.66-61.71,40.26c-30.85,8.42-64.58,5.54-93.65-7.74 c-27.11-12.32-50.01-33.64-64.28-59.78c-13.62-24.69-19.29-53.64-16.24-81.66c3.25-32.16,18.42-62.85,41.7-85.23 C110.27,15.97,141.98,2.11,174.64,0z"></path><path class="st0" d="M879,0h37c0,89.83,0,179.66,0,269.49c-12.34-0.06-24.68,0.04-37.01-0.06C879.02,179.62,878.99,89.81,879,0z"></path><g>	<path class="st1" d="M387.5,97.72c20.44-3.04,41.91,1.33,59.5,12.18c16.26,9.89,29.19,25.13,36.3,42.79  c6.13,15.2,7.95,32.09,5.27,48.26c-3.58,22-15.78,42.53-33.54,56.04c-12.95,10.13-28.79,16.45-45.13,18.16  c-21.69,2.35-44.27-3.43-61.89-16.37c-15.77-11.27-27.65-27.86-33.24-46.42c-6.67-21.91-4.62-46.39,5.83-66.8  C333.5,120.1,359.14,101.53,387.5,97.72z M393.6,135.79c-8.9,1.18-17.5,4.76-24.53,10.35c-11.91,9.16-19.39,23.87-19.59,38.92  c-0.31,11.65,3.53,23.41,10.85,32.51c9.68,12.64,25.66,20.12,41.56,19.53c12.78-0.37,25.37-5.77,34.33-14.9  c12.31-11.98,17.76-30.55,13.72-47.26c-3.18-14.43-13.09-27.17-26.25-33.87C414.54,136.24,403.85,134.33,393.6,135.79z"></path></g><g>	<path class="st2" d="M573.1,97.17c17.3-1.61,35.07,2.03,50.34,10.31c16.31,8.68,29.68,22.64,37.84,39.19  c8.29,16.69,11,36.02,7.92,54.37c-4.81,30.78-27.12,57.88-56.25,68.8c-21.45,8.14-46.01,7.73-67.1-1.34  c-29.19-12.16-50.64-40.9-53.71-72.41c-2.57-22.14,3.51-45.23,16.94-63.06C523.93,112.62,547.95,99.19,573.1,97.17z M574.5,135.77  c-13.13,1.66-25.52,8.65-33.58,19.17c-8.55,10.8-12.38,25.23-10.23,38.84c2.01,14.17,10.48,27.25,22.5,35  c7.94,5.22,17.38,8.23,26.9,8.31c14.15,0.39,28.3-5.69,37.93-16.03c10.11-10.56,15.21-25.66,13.59-40.18  c-1.38-13.21-8.16-25.77-18.5-34.11C602.48,138.04,588.13,133.91,574.5,135.77z"></path></g><g>	<path class="st0" d="M718.77,114.78c12.66-9.89,28.16-16.13,44.18-17.58c19.01-1.97,38.51,3.05,54.53,13.4  c-0.01-3.3-0.01-6.59,0.04-9.89c13.41,0.08,26.82-0.04,40.24,0.07c0,55.4-0.02,110.81,0.01,166.22  c0.34,20.42-6.33,40.97-18.95,57.08c-10.01,12.96-23.72,23.1-39.15,28.63c-18.09,6.53-38.4,6.58-56.56,0.27  c-23.22-8.01-42.22-26.5-51.75-49.04c11.45-5.17,23.04-10.02,34.58-15.01c5.4,12.49,15.94,22.7,28.78,27.34  c11.84,4.28,25.39,3.74,36.75-1.76c12.08-5.65,21.58-16.37,25.96-28.95c2.33-7.73,1.75-15.98,0.2-23.81  c-15.48,10.12-34.24,15.12-52.69,13.7c-17.55-1.17-34.55-8.12-48.1-19.28c-14.9-12.24-25.6-29.47-30.04-48.23  c-3.73-15.47-3.4-31.9,1-47.2C692.93,142.67,703.9,126.28,718.77,114.78z M764.5,135.75c-21.34,2.51-39.89,19.9-43.63,41.08  c-3.19,15.96,2.13,33.25,13.59,44.77c10.31,10.88,25.62,16.56,40.53,15.45c15.28-0.74,29.97-8.91,38.75-21.42  c7.44-10.43,10.91-23.76,8.94-36.46c-1.87-14.07-10.18-26.99-21.84-34.98C790.34,136.95,777.09,134.08,764.5,135.75z"></path></g><g>	<path class="st1" d="M967.91,112.8c12.82-9.35,28.32-14.95,44.16-15.85c17.57-1.29,35.26,4.27,49.6,14.34  c18.07,12.78,31.25,32.03,37.41,53.22c-41.06,16.87-82.33,33.23-123.3,50.31c7.3,12.47,19.28,22.85,33.76,25.58  c19.94,3.53,41.3-6.47,51.77-23.74c10.23,6.04,20.41,12.17,30.69,18.12c-7.95,13.73-20.21,24.79-34.41,31.78  c-13.78,6.69-29.28,9.7-44.56,8.99c-18.22-0.79-36.03-7.91-49.93-19.66c-10.72-8.94-19.16-20.52-24.67-33.32  c-8.49-19.93-9.71-42.85-3.3-63.55C940.68,140.62,952.31,124.05,967.91,112.8z M988.49,142.37c-11.84,9.97-19.03,24.89-20.29,40.25  c27.55-11.23,55.09-22.46,82.67-33.61c-6.7-7.35-14.84-13.84-24.62-16.4C1013.06,128.91,998.64,133.59,988.49,142.37z"></path></g><g>	<path class="st3" d="M215.56,359.74c12.61-2.51,26.59-1.26,37.44,6.13c10.09,6.74,16.1,17.94,19.79,29.21  c4.75,14.11,5.18,29.15,5.43,43.88c-0.38,18.13-1.4,37.03-9.7,53.53c-5.54,11.3-15.41,21.05-27.9,24.07  c-12.24,2.99-25.9,2.2-37.01-4.09c-10.35-5.82-17.28-16.26-21.02-27.3c-6.44-18.56-6.76-38.51-6.22-57.94  c0.86-16.87,3.35-34.52,12.87-48.89C195.18,369.04,204.69,361.98,215.56,359.74z M220.42,375.48c-7.7,1.87-13.81,7.88-17.05,14.96  c-4.29,9.11-5.65,19.25-6.58,29.18c-1.14,14.79-1.04,29.69,0.62,44.44c1.01,7.74,2.35,15.64,5.97,22.64  c3.8,6.71,9.81,12.63,17.42,14.66c7.92,2.21,16.87-0.03,22.86-5.65c4.59-4.1,8.11-9.39,9.84-15.32  c4.16-13.37,4.47-27.53,4.76-41.41c-0.22-14.03-0.54-28.29-4.5-41.85c-2.15-7.47-6.88-14.23-13.4-18.51  C234.56,374.79,227.12,373.84,220.42,375.48z"></path></g><path class="st3" d="M19.42,361.25c25.94-0.02,51.88,0,77.82-0.01c0.02,6.25,0.01,12.5,0.01,18.76c-20.78,0.01-41.55-0.01-62.33,0 c-2.76,13.77-5.52,27.53-8.25,41.3c10.21-7.08,22.9-10.8,35.32-9.17c16.99,1.54,32.35,13.41,38.72,29.14 c3.9,9.38,4.41,19.78,3.36,29.77c-1.91,16.39-11.46,31.87-25.67,40.38c-11.85,6.88-26.28,8.09-39.57,5.68 c-11.22-2.03-21.74-8.13-28.61-17.3c-5.58-7.29-8.65-16.33-9.32-25.45c6.77-0.44,13.51-1.14,20.27-1.65 c1.31,7.33,3.53,14.87,8.78,20.41c6.41,7.18,16.64,10.29,26.04,8.72c10.82-1.51,20.06-9.45,24.46-19.26 c3.69-8.67,4.41-18.48,2.67-27.7c-1.53-8.27-6.26-16.01-13.36-20.62c-15-9.82-37.59-5.7-47.19,9.77 c-6.12-0.49-12.16-1.61-18.27-2.18C9.16,414.95,14.38,388.12,19.42,361.25z"></path><path class="st3" d="M398.89,428c6.14-18.75,12.04-37.6,18.52-56.24c6.12,18.76,12.2,37.53,18.42,56.25 c18.19,0.09,36.38-0.28,54.57,0.27c-14.78,12.12-29.68,24.07-44.5,36.14c5.45,18.43,11.21,36.77,16.69,55.19 c-15.14-9.92-30.18-20.01-45.37-29.85c-14.99,9.96-30.01,19.9-45.1,29.72c5.49-18.4,11.44-36.67,16.98-55.05 c-14.95-12.08-29.95-24.09-44.93-36.13C362.4,427.7,380.65,428.13,398.89,428z"></path><path class="st3" d="M548.89,428c6.14-18.75,12.04-37.6,18.52-56.24c6.11,18.76,12.21,37.51,18.4,56.24 c18.19,0.12,36.39-0.28,54.58,0.27c-14.76,12.14-29.69,24.08-44.49,36.16c5.46,18.42,11.2,36.76,16.69,55.18 c-15.14-9.92-30.18-20-45.36-29.86c-15,9.97-30.02,19.91-45.11,29.74c5.49-18.41,11.44-36.67,16.98-55.06 c-14.86-12.1-29.95-23.92-44.73-36.11C512.53,427.66,530.71,428.15,548.89,428z"></path><path class="st3" d="M709.89,428c6.13-18.77,12.07-37.6,18.51-56.27c6.13,18.77,12.19,37.56,18.44,56.29 c18.18,0.07,36.37-0.29,54.55,0.26c-14.77,12.12-29.67,24.07-44.49,36.13c5.45,18.44,11.21,36.78,16.69,55.2 c-15.15-9.92-30.18-20.03-45.39-29.85c-14.98,9.98-29.99,19.9-45.08,29.71c5.49-18.39,11.44-36.66,16.98-55.04 c-14.95-12.08-29.95-24.09-44.93-36.13C673.4,427.7,691.65,428.13,709.89,428z"></path><path class="st3" d="M870.89,428c6.16-18.73,11.98-37.58,18.54-56.17c6.1,18.73,12.2,37.47,18.38,56.17 c18.17,0.12,36.35-0.29,54.51,0.28c-14.69,12.19-29.63,24.06-44.42,36.13c5.45,18.44,11.21,36.78,16.69,55.2 c-15.14-9.92-30.18-20.01-45.37-29.86c-14.99,9.96-29.98,19.93-45.09,29.7c5.49-18.4,11.44-36.65,16.97-55.03 c-14.92-12.01-29.82-24.03-44.79-35.97C834.48,427.5,852.7,428.23,870.89,428z"></path><path class="st3" d="M1031.89,428c6.14-18.76,12.04-37.6,18.52-56.24c6.11,18.75,12.21,37.51,18.4,56.24 c18.15,0.13,36.31-0.3,54.46,0.29c-14.64,12.22-29.61,24.05-44.37,36.12c5.45,18.44,11.21,36.78,16.69,55.2 c-15.15-9.92-30.18-20.02-45.37-29.85c-14.99,9.96-30,19.9-45.1,29.71c5.49-18.4,11.45-36.66,16.98-55.05 c-14.95-12.07-29.95-24.08-44.92-36.12C995.41,427.7,1013.65,428.13,1031.89,428z"></path><path class="st3" d="M129.52,493.52c7.39-0.02,14.78,0.05,22.17-0.05c0.15,7.33,0.02,14.67,0.08,22c-7.42,0.02-14.84,0-22.25,0.01 C129.52,508.16,129.52,500.84,129.52,493.52z"></path></svg>