<?xml version="1.0" encoding="utf-8"?>
<!-- Generator: Adobe Illustrator 23.1.0, SVG Export Plug-In . SVG Version: 6.00 Build 0)  -->
<svg version="1.1" id="Layer_1" xmlns="http://www.w3.org/2000/svg" xmlns:xlink="http://www.w3.org/1999/xlink" x="0px" y="0px"
	 viewBox="0 0 419.52 157.82" style="enable-background:new 0 0 419.52 157.82;" xml:space="preserve">
<style type="text/css">
	.st0{display:none;fill:url(#SVGID_1_);}
	.st1{fill:#4A494A;}
</style>
<title>010 - Idea</title>
<desc>Created with Sketch.</desc>
<linearGradient id="SVGID_1_" gradientUnits="userSpaceOnUse" x1="33.8518" y1="37.2327" x2="113.7867" y2="141.4957">
	<stop  offset="0" style="stop-color:#F9EC00"/>
	<stop  offset="1" style="stop-color:#00A651"/>
</linearGradient>
<path class="st0" d="M119.28,103.07l-3.69-6.64c-0.46-0.83-1.51-1.12-2.33-0.67c-0.4,0.22-0.69,0.59-0.82,1.03s-0.07,0.9,0.15,1.3
	l0.79,1.43l-9.72-5.61l-0.01-29.8c0.12-0.71-0.21-1.42-0.83-1.78l-23.5-13.57V38.31l0.73,1.21c0.47,0.78,1.57,1.06,2.35,0.59
	c0.39-0.24,0.67-0.61,0.78-1.06c0.11-0.44,0.04-0.91-0.19-1.3l-3.91-6.51c-0.31-0.51-0.87-0.83-1.47-0.83
	c-0.6,0-1.16,0.32-1.47,0.83l-3.91,6.51c-0.24,0.39-0.3,0.85-0.19,1.3c0.11,0.44,0.39,0.82,0.78,1.06c0.39,0.24,0.85,0.31,1.3,0.19
	c0.44-0.11,0.82-0.39,1.06-0.78l0.72-1.2v10.44L52.59,62.23c-0.64,0.27-1.05,0.89-1.05,1.58v30.12l-10.03,5.79l0.9-1.63
	c0.22-0.4,0.28-0.87,0.15-1.31s-0.42-0.81-0.82-1.03c-0.83-0.46-1.87-0.16-2.33,0.67l-3.69,6.64c-0.29,0.52-0.29,1.17,0.01,1.69
	c0.3,0.52,0.86,0.85,1.46,0.86l7.62,0.13c0.93,0,1.7-0.76,1.72-1.69c0.02-0.95-0.74-1.73-1.69-1.75l-0.95-0.02l9.52-5.5l23.32,13.46
	c0.26,0.15,0.56,0.23,0.88,0.23c0.3,0,0.6-0.08,0.86-0.23l23.33-13.47l9.53,5.5l-1.17,0.02c-0.95,0.02-1.7,0.8-1.69,1.75
	c0.02,0.93,0.79,1.69,1.74,1.69l7.6-0.13c0.6-0.01,1.16-0.34,1.46-0.86C119.57,104.24,119.57,103.59,119.28,103.07z M75.9,83.83
	v21.99l-19.05-11L75.9,83.83z M75.89,78.87v1L54.97,91.95V66.78L75.89,78.87z M75.89,55.99V74.9l-19.2-11.09l20.93-12.08
	l20.91,12.07l-19.2,11.09V55.99c0-0.95-0.77-1.72-1.72-1.72S75.89,55.04,75.89,55.99z M79.33,83.82l16.25,9.38
	c0.79,0.46,1.89,0.16,2.34-0.63c0.23-0.4,0.29-0.86,0.17-1.3c-0.12-0.44-0.4-0.81-0.8-1.04L79.33,79.85v-1l20.91-12.07v26.95
	l-20.91,12.07V83.82z"/>
<path class="st1" d="M81.08,21.04V36.3l37.4,16.09c0.78,0.33,1.28,1.1,1.28,1.92v45.65l11.24,5c0.04,0.02,0.08,0.05,0.12,0.07
	c4-7.99,6.12-16.87,6.12-26.12c0-31.5-25.03-57.24-56.25-58.43C81.05,20.65,81.08,20.84,81.08,21.04z"/>
<path class="st1" d="M52.28,98.27l-6.77,3.01l31.41,13.51V72.32L42.4,57.47v40.64l8.19-3.64c1.05-0.47,2.28,0.01,2.74,1.06
	C53.8,96.58,53.33,97.8,52.28,98.27z M59.04,90.91c1.15,0,2.08,0.93,2.08,2.08s-0.93,2.08-2.08,2.08c-1.15,0-2.08-0.93-2.08-2.08
	S57.89,90.91,59.04,90.91z"/>
<path class="st1" d="M107.41,94.47l8.19,3.64V57.47L81.08,72.32v42.47l31.41-13.51l-6.77-3.01c-1.05-0.47-1.52-1.7-1.06-2.74
	C105.13,94.48,106.36,94,107.41,94.47z M98.97,95.07c-1.15,0-2.08-0.93-2.08-2.08s0.93-2.08,2.08-2.08c1.15,0,2.08,0.93,2.08,2.08
	S100.12,95.07,98.97,95.07z"/>
<path class="st1" d="M27,104.95l11.24-5V54.31c0-0.86,0.53-1.61,1.28-1.92l37.4-16.09V21.04c0-0.2,0.04-0.39,0.09-0.57
	C45.57,21.39,20.28,47.24,20.28,78.9c0,9.46,2.28,18.39,6.3,26.31C26.71,105.11,26.85,105.02,27,104.95z"/>
<path class="st1" d="M117.67,103.58l-37.85,16.28c-0.53,0.23-1.14,0.22-1.64,0l-37.85-16.28l-11.65,5.17
	c-0.04,0.02-0.09,0.03-0.13,0.04c10.23,17.05,28.9,28.53,50.21,28.59l39.99,0.02l-0.35-15.5l0.64-0.61
	c3.98-3.79,7.35-8.04,10.07-12.62L117.67,103.58z"/>
<path class="st1" d="M112.42,54.31L81.08,40.83v5.16c0,1.15-0.93,2.08-2.08,2.08c-1.15,0-2.08-0.93-2.08-2.08v-5.16L45.58,54.31
	L79,68.68L112.42,54.31z M76.92,54.31c0-1.15,0.93-2.08,2.08-2.08s2.08,0.93,2.08,2.08c0,1.15-0.93,2.08-2.08,2.08
	S76.92,55.46,76.92,54.31z"/>
<path class="st1" d="M364.09,82.73c-7.6,7.13-15.88,16.58-27.14,16.58c-1.97,0-3.74-0.45-5.32-1.36c-1.99-1.14-3.54-2.91-4.69-5.31
	c-0.96-1.97-1.32-3.66-1.08-5.05c0.23-1.49,0.45-2.48,0.63-2.96c0.36-0.96,0.99-1.84,1.89-2.62c-3.83,3.21-7.25,6.65-11,9.84
	c-4.09,3.47-6.87,5.55-8.35,6.18c-1.47,0.63-3.01,0.94-4.64,0.94c-3.49,0-5.45-1.36-5.86-4.06c-0.41-2.65,2.32-9.47,8.21-20.47
	c0.23-0.43,0.35-0.78,0.35-1.09c0-0.3-0.2-0.45-0.63-0.45c-1.03,0-2.12,0.6-3.3,1.76c-1.16,1.18-3.41,3.69-6.71,7.53
	c-3.79,4.39-6.41,7.6-7.85,9.64c-1.44,2.05-3.25,3.84-5.41,5.37c-2.15,1.54-4.06,2.3-5.68,2.3c-2.15,0-3.24-1.11-3.24-3.33
	c0-1.03,0.48-2.32,1.46-3.88c1.49-2.47,2.29-3.79,2.34-3.97c1.08-2.22,3.73-7.52,7.93-15.86c-1.42,1.68-2.66,2.96-3.85,4.29
	l-7.96,8.9c-2.59,2.9-5.53,6.1-6.66,7c-5.65,4.5-9.82,6.76-12.53,6.76c-1.81,0-3.28-0.73-4.42-2.17c-0.89-1.14-1.34-2.25-1.34-3.33
	c0-2.22,0.56-4.72,1.71-7.48c0.61-1.51,2.68-5.9,6.23-13.16c-1.76,2.2-3.81,4.44-5.82,6.99l-3.7,4.71
	c-5.09,6.49-11,10.52-16.46,13.19c-1.44,0.7-2.78,1.08-4.06,1.08c-1.85,0-3.39-0.75-4.59-2.25c-1.03-1.33-1.54-2.88-1.54-4.69
	c0-0.91,0.15-1.75,0.45-2.53c1.14-2.58,2.87-6.24,5.15-11c-12.2,13.71-20.47,20.53-24.81,20.47c-2.88-0.07-4.32-1.66-4.32-4.79
	c0-2.88,0.99-6.24,2.98-10.08c1.81-3.49,4.11-7.48,6.94-12c-3.28,3.93-5.79,6.95-7.72,8.89l-3.28,3.3
	c-2.94,2.96-5.69,6.06-8.47,9.09c-5.49,5.99-9.62,11.18-12.44,15.52c-3.13,4.8-5.23,7.87-6.31,9.19c-3.08,3.61-6.23,5.83-9.47,6.67
	c-1.99,0.55-3.64,0.81-4.97,0.81c-2.33,0-3.51-0.85-3.51-2.52c0-0.84,0.3-1.81,0.91-2.9c1.37-2.52,4.39-7.48,9.01-14.87
	c3.01-4.5,6.09-9.47,9.29-14.87c-5.96,5.28-10.98,7.93-15.05,7.93c-1.21,0-2.29-0.27-3.25-0.81c-2.23-1.33-3.35-3.54-3.35-6.67
	c0-2.35,0.58-4.84,1.72-7.48c-0.73,0.3-1.36,0.45-1.9,0.45c-0.85,0-1.26-0.38-1.26-1.18c0-1.01,0.63-2.15,1.89-3.41
	c1.87-2.6,5.2-6.62,10.02-12.09c3.96-3.97,6.36-6.26,7.2-6.86c3.13-2.4,6.46-3.61,10.02-3.61c5.1,0,7.97,1.59,8.56,4.79
	c0.41-1.51,1.71-4.42,3.87-8.74c0.78-1.21,1.62-1.8,2.52-1.8c1.32,0,2.91,1.41,4.79,4.24c0.96,1.51,1.44,2.91,1.44,4.24
	c0,0.96-0.23,1.99-0.71,3.06c-0.98,2.17-2.91,6.08-5.86,11.72c-2.23,4.32-5.38,11.06-9.47,20.19c3.1-3.21,7.07-7.44,11.88-12.76
	l2.8-3.1c5.15-5.7,10.8-12.83,17.67-20.73c0.7-0.8,1.42-1.18,2.09-1.18c1.19,0,2.77,1.59,4.69,4.79c1.08,1.74,1.62,3.06,1.62,3.96
	c0,0.66-0.21,1.44-0.63,2.35c-1.09,2.52-2.77,6.13-5.05,10.81c-0.48,0.85-0.73,1.56-0.73,2.17c0,0.84,0.43,1.14,1.26,0.89
	c1.03-0.36,2.35-1.37,3.97-3.06c3.36-3.48,7.6-8.63,12.72-15.42c0.78-1.08,2.47-2.24,5.08-3.46c2.62-1.24,4.65-1.79,6.09-1.67
	c1.99,0.12,2.96,0.84,2.96,2.17c0,1.14-0.68,3.18-2.07,6.13c-2.33,4.5-4.95,9.7-7.83,15.6c-0.91,2.58-0.55,3.87,1.08,3.87
	c0.78,0,1.74-0.55,2.88-1.62c0.67-0.64,1.39-1.27,2.03-2l3.61-4.14c1.39-1.59,3.23-3.78,5.37-6.67c2.03-2.74,3.87-5.65,5.86-8.46
	c2.22-3.13,3.94-4.85,5.13-5.15c4.99-1.27,8.56,3.78,8.56,7.22c0,1.62-1.23,5.13-3.69,10.55c-2.29,5.05-3.43,8.3-3.43,9.74
	c0,0.66,0.28,0.99,0.81,0.99c0.13,0,3.04-1.15,5.35-3.6l7.56-8.02c2.07-2.2,3.67-4.8,5.85-7.68c4.93-6.51,7.45-10.1,9.01-9.74
	c1.09,0.25,2.19,0.93,3.3,2.07c1.11,1.14,1.79,2.25,2.04,3.35c0.53,2.33,0.53,4.44,0,6.31c-0.32,1.08-1.42,3.03-3.35,5.85
	c2.1-2.04,4.06-3.87,5.86-5.5c4.27-3.91,7.42-6.46,9.47-7.65c1.31-0.85,2.67-1.69,4.06-2.53c1.37-0.84,2.58-1.26,3.59-1.26
	c1.62,0,3.2,1.03,4.7,3.06c0.23,0.36,0.35,0.81,0.35,1.36c0,1.44-1.41,4.87-4.24,10.27c-3.96,7.58-5.94,12.02-5.94,13.35
	c0,0.6,0.25,0.91,0.73,0.91c3.43,0,7.95-4.76,10.23-7.22c1.8-1.95,2.56-3.08,5.81-6.85c3.53-4.09,6.9-7.47,10.08-10.18
	c3.97-3.43,8.13-5.13,12.45-5.13c1.99,0,3.88,0.36,5.68,1.08c1.33,0.55,2.19,1.09,2.62,1.62c1.37,1.62,2.07,3.43,2.07,5.41
	c0,1.99-0.7,3.88-2.07,5.68c-1.69,2.15-3.53,3.25-5.5,3.25c-2.9,0-4.34-1.36-4.34-4.06c0-0.91,0.25-1.77,0.73-2.62
	c0.66-1.21,1.74-1.92,3.24-2.17c-0.66-0.55-1.39-0.81-2.17-0.81c-2.82,0-6.13,3.66-9.92,11c-2.4,4.69-3.61,8.36-3.61,11.01
	c0,2.82,1.21,4.26,3.61,4.32c1.69,0.05,3.84-0.65,6.41-2.17c10.41-6.16,16.73-18,26.59-25.34c4.93-3.73,9.32-5.58,13.16-5.58
	c2.52,0,4.54,0.74,6.04,2.25c1.67,1.69,2.52,3.49,2.52,5.41c0,2.88-1.8,6.24-5.41,10.09c-4.98,5.3-10.73,8.96-17.22,11.01
	c-0.3,3.3,0.91,4.98,3.61,5.03c1.69,0.07,3.82-0.66,6.41-2.15c2.33-1.44,4.39-3.06,6.13-4.87c2.28-2.47,3.83-3.96,4.64-4.47
	c0.81-0.51,1.31-0.76,1.49-0.76c0.48,0,1.09,0.23,1.8,0.73c0.3,0.23,0.45,0.53,0.45,0.89c0,1.32-2.1,3.94-6.31,7.85
	c-7.75,7.15-14.84,10.73-21.28,10.73c-1.97,0-3.73-0.41-5.22-1.26c-2.05-1.14-3.64-2.91-4.79-5.33c-0.96-1.97-1.33-3.66-1.08-5.05
	c0.23-1.49,0.41-2.48,0.53-2.96C362.47,84.36,363.13,83.5,364.09,82.73L364.09,82.73z M175.1,77.74c9.42-12.95,1.39-18.79-8.89-2.87
	C156.29,90.23,165.19,91.37,175.1,77.74L175.1,77.74z M389.06,69.9c7.23-7.7-1.04-8.04-7.94,0.58
	C375.18,77.91,381.72,77.73,389.06,69.9L389.06,69.9z"/>
<path class="st1" d="M282.07,40.08c8.97,8.91-17.72,22.13-12.98,14.11C276.28,42.01,273.09,31.18,282.07,40.08L282.07,40.08z"/>
<g>
	<path class="st1" d="M207.59,122.91c-0.48,0.39-1.03,0.67-1.63,0.83c-1.04,0.28-2.04,0.39-3.06,0.05c-0.4-0.13-0.76-0.34-1.08-0.61
		c-0.32-0.28-0.58-0.64-0.79-1.08c-0.2-0.44-0.31-0.99-0.31-1.62v-5.25c0-0.64,0.1-1.19,0.3-1.63c0.2-0.44,0.46-0.79,0.77-1.07
		c0.32-0.28,0.68-0.48,1.09-0.61c1.01-0.32,2.04-0.25,3.11,0.1c0.61,0.19,1.12,0.47,1.52,0.81l0.33,0.28l1.54-2.4l-0.26-0.21
		c-0.67-0.55-1.44-0.96-2.28-1.22c-1.58-0.48-3.51-0.54-5.12,0.02c-0.77,0.27-1.47,0.66-2.06,1.17c-0.59,0.51-1.08,1.14-1.43,1.85
		c-0.36,0.73-0.54,1.55-0.54,2.45v6.16c0,0.92,0.18,1.75,0.53,2.48c0.35,0.73,0.83,1.36,1.43,1.86c0.59,0.5,1.29,0.89,2.07,1.16
		c0.78,0.26,1.6,0.4,2.45,0.4c1.01,0,1.96-0.16,2.84-0.46c0.87-0.31,1.59-0.69,2.14-1.14l0.26-0.21l-1.47-2.38L207.59,122.91z"/>
	<path class="st1" d="M230.4,118.58c0.39-0.35,0.73-0.75,1.01-1.19c0.28-0.44,0.49-0.91,0.63-1.41c0.14-0.5,0.21-1,0.21-1.5
		c0-0.64-0.1-1.28-0.29-1.91c-0.19-0.64-0.5-1.23-0.92-1.74c-0.42-0.52-0.96-0.95-1.61-1.27c-0.66-0.33-1.44-0.49-2.34-0.49h-7.36
		v17.58h3v-6.77h3.73l2.86,6.77h3.32l-3.24-7.37C229.75,119.09,230.09,118.86,230.4,118.58z M229.25,114.48
		c0,0.83-0.24,1.45-0.72,1.9c-0.49,0.46-1.12,0.68-1.91,0.68h-3.9v-5.19h3.9c0.79,0,1.41,0.23,1.9,0.7
		C229.01,113.04,229.25,113.67,229.25,114.48z"/>
	<polygon class="st1" points="242.86,126.65 254.85,126.65 254.85,123.88 245.86,123.88 245.86,119.25 253.55,119.25 253.55,116.47 
		245.86,116.47 245.86,111.87 254.85,111.87 254.85,109.07 242.86,109.07 	"/>
	<path class="st1" d="M274.07,109.07h-2.81l-6.12,17.58h3.14l1.29-3.79h6.16l1.32,3.79h3.17l-6.06-17.33L274.07,109.07z
		 M274.77,120.06h-4.21l1.18-3.52l0.92-2.93L274.77,120.06z"/>
	<polygon class="st1" points="290.51,111.9 295.37,111.9 295.37,126.65 298.42,126.65 298.42,111.9 303.26,111.9 303.26,109.07 
		290.51,109.07 	"/>
	<rect x="313.7" y="109.07" class="st1" width="3" height="17.58"/>
	<polygon class="st1" points="335.59,116.94 334.16,121.74 332.81,117.22 330.26,109.07 327,109.07 332.67,126.65 335.66,126.65 
		341.32,109.07 338.07,109.07 	"/>
	<polygon class="st1" points="363.62,111.87 363.62,109.07 351.63,109.07 351.63,126.65 363.62,126.65 363.62,123.88 354.63,123.88 
		354.63,119.25 362.32,119.25 362.32,116.47 354.63,116.47 354.63,111.87 	"/>
</g>
</svg>
