<svg xmlns="http://www.w3.org/2000/svg" xmlns:xlink="http://www.w3.org/1999/xlink" viewBox="0,0,256,256" width="64px" height="64px" fill-rule="nonzero"><defs><linearGradient x1="28.904" y1="9.936" x2="28.904" y2="50.306" gradientUnits="userSpaceOnUse" id="color-1"><stop offset="0" stop-color="#035dfa"></stop><stop offset="1" stop-color="#076fff"></stop></linearGradient><linearGradient x1="44.487" y1="9.936" x2="44.487" y2="50.306" gradientUnits="userSpaceOnUse" id="color-2"><stop offset="0" stop-color="#035dfa"></stop><stop offset="1" stop-color="#076fff"></stop></linearGradient><linearGradient x1="19.534" y1="9.936" x2="19.534" y2="50.306" gradientUnits="userSpaceOnUse" id="color-3"><stop offset="0" stop-color="#035dfa"></stop><stop offset="1" stop-color="#076fff"></stop></linearGradient><linearGradient x1="32" y1="7.255" x2="32" y2="55.655" gradientUnits="userSpaceOnUse" id="color-4"><stop offset="0" stop-color="#005cff"></stop><stop offset="1" stop-color="#b1b1b1"></stop></linearGradient></defs><g fill="none" fill-rule="nonzero" stroke="none" stroke-width="1" stroke-linecap="butt" stroke-linejoin="miter" stroke-miterlimit="10" stroke-dasharray="" stroke-dashoffset="0" font-family="none" font-weight="none" font-size="none" text-anchor="none" style="mix-blend-mode: normal"><g transform="scale(4,4)"><path d="M12.845,43.278l2.099,2.568c4.195,5.136 10.399,8.081 17.02,8.081c6.057,0 11.693,-2.422 15.819,-6.724l-4.761,-4.811c-0.688,0.73 -1.449,1.393 -2.269,1.974c-2.458,1.897 -6.753,2.634 -10.251,2.691c-4.556,-0.465 -8.722,-3.031 -11.196,-6.913l-1.294,-2.03l1.703,-1.703l1.346,-1.346c-2.241,0.005 -4.25,0.008 -6.024,0.008c-1.956,0 -3.628,-0.003 -5.01,-0.01v11.034l0.473,-0.473z" fill="url(#color-1)"></path><path d="M53.502,18.377l-2.346,2.346l-2.099,-2.568c-3.561,-4.361 -8.573,-7.135 -14.057,-7.875v6.906c3.958,0.82 7.496,3.222 9.695,6.672l1.294,2.03l-1.703,1.703l-1.346,1.346c2.241,-0.005 4.25,-0.008 6.024,-0.008c1.956,0 3.628,0.003 5.01,0.01v-11.035z" fill="url(#color-2)"></path><path d="M28.865,10h-11.034l0.473,0.473l2.346,2.346l-2.568,2.099c-4.367,3.568 -7.143,8.59 -7.878,14.083h6.905c0.815,-3.968 3.218,-7.517 6.676,-9.721l2.03,-1.294l1.703,1.703l1.346,1.346c-0.011,-4.712 -0.011,-8.399 0.001,-11.035z" fill="url(#color-3)"></path><path d="M57.975,30.896v-20.234c0,-0.404 -0.243,-0.77 -0.617,-0.924c-0.374,-0.155 -0.804,-0.069 -1.09,0.217l-4.828,4.828c-4.847,-5.451 -12.131,-8.673 -19.44,-8.783c0,0 -0.748,-0.016 -1.074,0h-20.322c-0.405,0 -0.77,0.244 -0.924,0.618c-0.155,0.374 -0.068,0.805 0.219,1.091l4.848,4.826c-5.573,4.935 -8.747,11.944 -8.747,19.402c0,0.03 0.026,21.402 0.026,21.402c0,0.404 0.243,0.77 0.617,0.924c0.375,0.155 0.804,0.069 1.09,-0.217l4.828,-4.828c4.935,5.55 11.943,8.71 19.401,8.71c7.431,0 14.519,-3.193 19.446,-8.761c1.044,-1.18 0.991,-2.982 -0.119,-4.104l-6.182,-6.246c-0.593,-0.599 -1.436,-0.904 -2.254,-0.88c-0.862,0.041 -1.674,0.452 -2.227,1.128c-0.647,0.79 -1.398,1.486 -2.274,2.102c-1.462,1.141 -2.683,1.84 -7.197,1.934c-3.179,-0.251 -6.124,-1.896 -8.024,-4.45l5.901,-5.901c0.286,-0.286 0.372,-0.718 0.216,-1.092c-0.155,-0.372 -0.52,-0.615 -0.923,-0.615c-0.001,0 -0.003,0 -0.004,0c-2.711,0.01 -5.188,0.018 -7.43,0.023c0.268,-3.154 1.915,-6.074 4.466,-7.962l5.93,5.906c0.286,0.285 0.717,0.368 1.092,0.214c0.373,-0.156 0.616,-0.522 0.614,-0.927c-0.009,-2.323 -0.018,-4.861 -0.023,-7.378c3.13,0.284 6.023,1.914 7.898,4.433l-5.901,5.901c-0.286,0.286 -0.372,0.718 -0.216,1.092c0.155,0.372 0.52,0.615 0.923,0.615c0.001,0 0.003,0 0.004,0c10.935,-0.042 18.08,-0.041 21.244,0.003c0.025,0.002 0.051,0.003 0.077,0.003c0.001,0 0.002,0 0.003,0c0.552,-0.002 0.999,-0.45 0.997,-1.003c0,-0.373 -0.009,-0.743 -0.024,-1.067zM21.129,37.824c-0.332,0.331 -0.389,0.849 -0.137,1.244c2.201,3.452 5.941,5.704 10.104,6.028c5.222,-0.103 6.75,-0.999 8.445,-2.323c0.984,-0.689 1.87,-1.511 2.634,-2.442c0.194,-0.238 0.477,-0.383 0.772,-0.396c0.29,-0.015 0.541,0.089 0.738,0.288l6.182,6.246c0.372,0.376 0.392,0.979 0.043,1.372c-4.549,5.14 -11.091,8.087 -17.948,8.087c-7.224,0 -13.991,-3.213 -18.568,-8.815c-0.179,-0.219 -0.442,-0.352 -0.725,-0.366c-0.017,-0.001 -0.033,-0.001 -0.05,-0.001c-0.265,0 -0.52,0.104 -0.707,0.293l-3.887,3.887l0,-17.864c0,-0.004 0,-0.008 -0.001,-0.013c3.25,0.03 9.247,0.032 17.879,0.001zM30.985,25.884l-4.803,-4.783c-0.332,-0.329 -0.848,-0.385 -1.242,-0.136c-3.43,2.178 -5.681,5.862 -6.04,9.878c-0.021,0.069 -0.032,0.151 -0.048,0.226c-4.944,0.008 -8.563,0.001 -10.827,-0.02c0.253,-6.887 3.433,-13.291 8.829,-17.679c0.22,-0.179 0.354,-0.442 0.368,-0.726c0.014,-0.282 -0.093,-0.559 -0.294,-0.759l-3.902,-3.885l17.944,-0.001c0.006,0 0.012,-0.001 0.018,-0.001c-0.038,3.95 -0.025,11.397 -0.003,17.886zM48.972,30.929c-2.969,0 -6.599,0.007 -10.874,0.022l4.774,-4.774c0.332,-0.331 0.389,-0.849 0.137,-1.244c-2.178,-3.416 -5.862,-5.656 -9.877,-6.015c-0.05,-0.016 -0.112,-0.022 -0.165,-0.035c-0.007,-4.245 -0.004,-8.227 0.019,-10.783c6.865,0.268 13.244,3.433 17.62,8.789c0.179,0.219 0.442,0.352 0.725,0.366c0.283,0.014 0.558,-0.091 0.757,-0.292l3.887,-3.887l0.001,17.863c0,0.004 0,0.008 0.001,0.013c-1.641,-0.015 -3.981,-0.023 -7.005,-0.023z" fill="url(#color-4)"></path></g></g></svg>